<svg xmlns="http://www.w3.org/2000/svg" xmlns:xlink="http://www.w3.org/1999/xlink" data-name="Layer 2" viewBox="0 0 769.91 840.29" style="fill: rgb(0, 0, 0);" original_string_length="8779" width="1466.67px" height="1600px">
    <defs>
        <linearGradient gradientUnits="userSpaceOnUse" id="__id123_synt0vawnj" x1="214.36" x2="502.6" y1="865.51" y2="241.72">
            <stop offset="0" style="stop-color: rgb(204, 193, 79);"/>
            <stop offset="1" style="stop-color: rgb(0, 0, 255);"/>
        </linearGradient>
        <linearGradient id="__id124_synt0vawnj" x1="324.77" x2="824.24" xlink:href="#__id123_synt0vawnj" y1="604.49" y2="448.46"/>
        <linearGradient id="__id125_synt0vawnj" x1="761.51" x2="239.89" xlink:href="#__id123_synt0vawnj" y1="360.02" y2="646.1"/>
        <linearGradient id="__id126_synt0vawnj" x1="132.07" x2="603.13" xlink:href="#__id123_synt0vawnj" y1="359.43" y2="98.05"/>
        <linearGradient gradientUnits="userSpaceOnUse" id="__id127_synt0vawnj" x1="559.31" x2="192.71" y1="331.62" y2="601.81">
            <stop offset="0" style="stop-color: rgb(128, 128, 128);"/>
            <stop offset="1" stop-opacity="0" style="stop-color: rgb(210, 210, 210);"/>
        </linearGradient>
        <linearGradient id="__id128_synt0vawnj" x1="0" x2="769.91" xlink:href="#__id123_synt0vawnj" y1="265.79" y2="265.79"/>
        <linearGradient gradientUnits="userSpaceOnUse" id="__id129_synt0vawnj" x1="573.84" x2="124.78" y1="266.03" y2="753.14">
            <stop offset="0" style="stop-color: rgb(128, 128, 128);"/>
            <stop offset="1" style="stop-color: rgb(210, 210, 210);"/>
        </linearGradient>
        <linearGradient id="__id130_synt0vawnj" x1="596.72" x2="225.9" xlink:href="#__id129_synt0vawnj" y1="345.68" y2="588.18"/>
        <linearGradient id="__id131_synt0vawnj" x1="340.94" x2="383.33" xlink:href="#__id129_synt0vawnj" y1="243.77" y2="738.01"/>
        <linearGradient id="__id132_synt0vawnj" x1="233.77" x2="614.17" xlink:href="#__id123_synt0vawnj" y1="111.83" y2="205.83"/>
        <linearGradient gradientTransform="rotate(-10.65 215.436 824.1)" id="__id133_synt0vawnj" x1="741.47" x2="241.93" xlink:href="#__id129_synt0vawnj" y1="820.62" y2="638.44"/>
    </defs>
    <g data-name="Layer 1">
        <g>
            <g>
                <path d="m737.13,583.87l-.22-.38-.84-1.43-2.81-4.81c-9.77-16.69-27.65-26.96-46.99-26.96h-123.78c-23.21,0-45.83,6.21-66.43,16.92-19.69,10.26-41.65,16.65-64.83,18.17-.82.05-1.64.1-2.47.14-10.39.52-20.57.09-30.48-1.22-73.72-9.73-132.15-67.93-142.18-141.56-1.39-10.14-1.86-20.58-1.32-31.22,3.78-74.76,58.2-137.07,129.31-153,8.9-2,18.08-3.27,27.44-3.75,16.2-.83,31.93.68,46.88,4.21,13.6,3.22,26.56,8.12,38.65,14.48,20.27,10.66,42.71,16.51,65.62,16.51h123.83c3.94,0,7.82-.42,11.58-1.26,8.13-1.76,15.72-5.36,22.18-10.49,4.43-3.5,8.35-7.71,11.54-12.52.63-.93,1.22-1.89,1.79-2.86l2.59-4.46c-.03-.06-.06-.13-.09-.19l26.52-45.31.87-1.51,1.53-2.61c8.24-14.09,5.96-31.99-5.58-43.56l-84.35-84.31c-11.53-11.57-29.43-13.86-43.52-5.62l-24.89,14.57c-14.82,8.66-32.85,9.81-48.67,3.15-1.32-.56-2.64-1.11-3.97-1.65-15.9-6.47-27.83-20.04-32.17-36.64l-7.29-27.87c-4.15-15.82-18.42-26.85-34.76-26.85h-119.26c-16.34,0-30.61,11.02-34.75,26.85l-.93,3.55-6.38,24.34c-3.23,12.35-10.67,23.02-20.81,30.33-3.48,2.51-7.29,4.63-11.35,6.28-1.34.55-2.67,1.1-3.99,1.65-15.83,6.67-33.87,5.52-48.68-3.16l-24.86-14.55c-14.09-8.25-31.98-5.96-43.55,5.62l-84.31,84.31c-4.64,4.64-7.78,10.28-9.35,16.29-2.36,9-1.2,18.82,3.74,27.27l14.54,24.84c8.67,14.82,9.83,32.84,3.17,48.66-.56,1.33-1.11,2.66-1.65,4-3.87,9.53-10.31,17.65-18.42,23.55-5.41,3.94-11.56,6.89-18.2,8.63l-27.88,7.31c-13.98,3.66-24.21,15.22-26.4,29.13-.3,1.84-.45,3.72-.45,5.62v119.25c0,16.34,11.02,30.61,26.85,34.76l22.21,5.8,5.63,1.47c16.61,4.35,30.19,16.28,36.66,32.19.55,1.33,1.1,2.66,1.65,3.99,6.66,15.81,5.51,33.84-3.16,48.66l-14.55,24.87c-8.25,14.09-5.96,31.99,5.62,43.52l84.31,84.35c11.57,11.54,29.46,13.86,43.55,5.58l24.86-14.53c14.82-8.67,32.84-9.82,48.66-3.15,1.33.57,2.67,1.11,4.01,1.66,15.89,6.47,27.81,20.03,32.16,36.62l7.31,27.88c4.13,15.8,18.4,26.82,34.74,26.82h119.27c16.34,0,30.61-11.02,34.76-26.82l7.28-27.85c4.35-16.6,16.27-30.18,32.17-36.65,1.34-.54,2.67-1.1,4-1.65,15.81-6.67,33.84-5.53,48.66,3.14l24.89,14.55c14.09,8.28,31.99,5.96,43.52-5.58l84.35-84.35c11.54-11.54,13.82-29.44,5.58-43.52l-27.86-47.67Z" style="fill: url(&quot;#__id123_synt0vawnj&quot;);"/>
                <path d="m737.13,583.87c-52.72,108.43-163.9,183.17-292.57,183.17-179.57,0-306.91-140.08-306.91-319.65l118.45-4.64c10.04,73.63,68.46,131.83,142.18,141.56,9.91,1.31,20.09,1.74,30.48,1.22.83-.04,1.65-.09,2.47-.14,6.42.42,12.94.48,19.53.14,24.1-1.22,46.92-7.7,67.31-18.31,20.26-10.55,42.51-16.73,65.34-16.92h102.85c19.35,0,37.23,10.26,46.99,26.96l2.81,4.81.84,1.43.22.38Z" style="fill: url(&quot;#__id124_synt0vawnj&quot;);"/>
                <path d="m723.53,565.06c-48.54,118.5-165,201.98-300.99,201.98-179.57,0-306.9-140.08-306.9-319.66l140.33-5.49c11.01,83.95,84.88,148.08,172.79,143.64,24.09-1.22,46.92-7.7,67.3-18.31,20.59-10.72,43.22-16.92,66.43-16.92h123.78c14.04,0,27.3,5.41,37.26,14.76Z" style="fill: url(&quot;#__id125_synt0vawnj&quot;);"/>
                <path d="m745.3,235.42l-1.54,2.61-.87,1.52-11.11,26.17c-3.19,4.81-7.11,9.01-11.54,12.52-6.46,5.12-14.04,8.72-22.18,10.49-63.79-95-172.2-157.52-295.23-157.52-196.27,0-355.38,159.1-355.38,355.37,0,11.39.54,22.67,1.59,33.78l-22.21-5.8c-15.82-4.15-26.85-18.42-26.85-34.76v-119.25c0-1.9.15-3.78.45-5.62,2.11-1.03,4.36-1.87,6.7-2.49l27.88-7.31c16.6-4.36,30.16-16.29,36.62-32.19.42-1.02.84-2.06,1.28-3.08,8.11-5.9,14.55-14.02,18.42-23.55.55-1.34,1.1-2.67,1.65-4,6.66-15.82,5.5-33.85-3.17-48.66l-14.54-24.84c-4.94-8.45-6.1-18.27-3.74-27.27l73.97-73.97c11.57-11.56,29.46-13.86,43.55-5.62l24.86,14.56c14.82,8.68,32.85,9.83,48.68,3.16,1.32-.56,2.65-1.11,3.99-1.65,14.69-5.98,25.99-18.02,31.04-32.92,10.14-7.31,17.58-17.98,20.81-30.33l6.38-24.34c4.84-2.42,10.29-3.76,15.98-3.76h119.26c16.34,0,30.61,11.02,34.76,26.85l7.29,27.86c4.34,16.6,16.26,30.18,32.17,36.65,1.33.54,2.65,1.09,3.97,1.64,15.82,6.67,33.86,5.52,48.67-3.15l24.89-14.57c14.09-8.25,31.99-5.95,43.52,5.62l84.35,84.31c11.54,11.58,13.82,29.48,5.59,43.57Z" style="fill: url(&quot;#__id126_synt0vawnj&quot;);"/>
                <path d="m594.08,550.3c-27.73,110.75-127.89,192.77-247.23,192.77-140.75,0-254.87-114.1-254.87-254.87s114.11-254.87,254.87-254.87c40.01,0,77.87,9.22,111.55,25.65-14.94-3.53-30.68-5.04-46.88-4.21-9.36.48-18.54,1.74-27.44,3.75-80.74,6.42-145.68,72.81-149.79,154.13-4.79,94.35,70.58,172.23,163.99,171.66,9.91,1.31,20.09,1.74,30.48,1.22,24.09-1.21,46.91-7.69,67.3-18.31,20.59-10.71,43.22-16.92,66.43-16.92h31.59Z" opacity=".81" style="fill: url(&quot;#__id127_synt0vawnj&quot;);"/>
                <path d="m67.17,459.94c0-196.27,159.11-355.37,355.37-355.37,127.99,0,240.17,67.67,302.74,169.17,3.17-3.22,5.97-6.86,8.3-10.87l2.59-4.46c-.03-.06-.06-.12-.09-.18l26.51-45.31.87-1.51,1.53-2.61c8.24-14.09,5.95-31.99-5.59-43.57l-84.35-84.31c-11.53-11.57-29.43-13.87-43.52-5.62l-24.89,14.57c-14.82,8.67-32.85,9.82-48.67,3.16-1.32-.56-2.65-1.11-3.98-1.65-15.9-6.47-27.83-20.04-32.17-36.65l-7.29-27.87C510.4,11.03,496.13,0,479.79,0h-119.26c-16.34,0-30.61,11.02-34.75,26.85l-7.31,27.89c-4.35,16.59-16.27,30.15-32.16,36.62-1.33.54-2.66,1.09-3.99,1.65-15.83,6.67-33.86,5.51-48.68-3.16l-24.86-14.55c-14.09-8.25-31.98-5.95-43.56,5.62l-84.31,84.31c-11.57,11.58-13.87,29.48-5.62,43.57l14.54,24.83c8.67,14.81,9.83,32.84,3.18,48.66-.56,1.33-1.11,2.66-1.65,4-6.46,15.9-20.02,27.84-36.63,32.19l-27.88,7.31C11.03,329.92,0,344.2,0,360.54v119.25c0,16.34,11.02,30.62,26.85,34.76l27.85,7.28c7.26,1.9,13.93,5.24,19.69,9.74-4.74-23.14-7.22-47.09-7.22-71.63Z" style="fill: url(&quot;#__id128_synt0vawnj&quot;);"/>
                <path d="m620.18,550.3c-.1.4-.2.82-.31,1.22-28.24,112.25-129.84,195.37-250.85,195.37-10.84,0-21.52-.66-32.01-1.96-127.76-15.77-226.68-124.7-226.68-256.73s98.92-240.96,226.68-256.73c10.49-1.29,21.17-1.96,32.01-1.96,37.28,0,72.72,7.9,104.74,22.09,20.43,9.07,39.46,20.69,56.71,34.49-11.57-2.79-22.8-7.04-33.43-12.63-25.37-13.33-54.58-20.27-85.52-18.69-.72.04-1.45.08-2.17.12-83.12,5.32-150.36,73.23-154.58,156.63-4.91,96.72,73.16,176.38,169.27,174.18,1.56-.04,3.14-.09,4.71-.17,24.09-1.21,46.91-7.69,67.3-18.31,20.59-10.71,43.22-16.92,66.43-16.92h57.69Z" style="fill: url(&quot;#__id129_synt0vawnj&quot;);"/>
                <path d="m619.88,551.53c-28.24,112.25-129.84,195.37-250.85,195.37-10.84,0-21.52-.66-32.01-1.96-116.37-27.45-202.97-131.98-202.97-256.73s86.6-229.28,202.97-256.73c10.49-1.29,21.17-1.96,32.01-1.96,37.28,0,72.72,7.9,104.74,22.09-10.58-1.49-21.48-2-32.6-1.44-10.9.55-21.53,2.16-31.81,4.72-83.12,5.32-150.36,73.23-154.58,156.63-4.91,96.72,73.16,176.38,169.27,174.18,11.23,1.73,22.83,2.35,34.68,1.75,24.57-1.25,47.85-7.85,68.63-18.68,21-10.93,44.07-17.25,67.74-17.25h24.77Z" style="fill: url(&quot;#__id130_synt0vawnj&quot;);"/>
                <path d="m496.06,567.23c-20.39,10.61-43.21,17.1-67.3,18.31-98.25,4.96-178.97-75.73-173.98-174.01,1.98-39.2,17.89-74.97,42.82-102.43-62.92,28.7-106.65,92.15-106.65,165.82,0,100.61,81.56,182.17,182.17,182.17,72.81,0,135.64-42.73,164.8-104.47-14.54,2.71-28.62,7.72-41.86,14.61Z" style="fill: url(&quot;#__id131_synt0vawnj&quot;);"/>
            </g>
            <path d="m639.52,219.7c-7.39,20.43-27.23,31.99-79.04,13.26-51.81-18.73-87.82-50.47-80.43-70.9,7.39-20.43,55.37-21.82,107.18-3.09,51.81,18.73,59.68,40.3,52.29,60.73Z" style="fill: url(&quot;#__id132_synt0vawnj&quot;);"/>
            <path d="m181.74,607.73c8.84-11.52,23.82-14.86,53.02,7.56s45.7,49.92,36.86,61.44c-8.84,11.52-39.68,2.68-68.88-19.74-29.2-22.42-29.84-37.75-21-49.26Z" style="fill: url(&quot;#__id133_synt0vawnj&quot;);"/>
        </g>
    </g>
</svg>
